nColumns=28
nRows=40
DataType=double
version=3
OpenSimVersion=4.1
endheader
time	ground_force_1_vx	ground_force_1_vy	ground_force_1_vz	ground_force_1_px	ground_force_1_py	ground_force_1_pz	ground_force_1_mx	ground_force_1_my	ground_force_1_mz	ground_force_2_vx	ground_force_2_vy	ground_force_2_vz	ground_force_2_px	ground_force_2_py	ground_force_2_pz	ground_force_2_mx	ground_force_2_my	ground_force_2_mz	ground_force_3_vx	ground_force_3_vy	ground_force_3_vz	ground_force_3_px	ground_force_3_py	ground_force_3_pz	ground_force_3_mx	ground_force_3_my	ground_force_3_mz
4	-26.344	644.32	-63.8564	-0.238513	0.006	-0.334745	0	-6.19219	0	2.81454	563.666	48.2638	-0.261444	0.006	-0.842723	0	1.79425	0	0	0	0	0	0	0	0	0	0
4.01	-25.6199	643.586	-65.0011	-0.239061	0.006	-0.33485	0	-5.88812	0	1.95492	562.933	49.8121	-0.261163	0.006	-0.843097	0	1.76433	0	0	0	0	0	0	0	0	0	0
4.02	-24.4577	641.769	-66.0024	-0.239811	0.006	-0.335018	0	-5.54675	0	1.30546	561.909	51.5116	-0.26106	0.006	-0.84346	0	1.71735	0	0	0	0	0	0	0	0	0	0
4.03	-22.8753	638.665	-66.8189	-0.240752	0.006	-0.335245	0	-5.17587	0	0.876757	560.535	53.3463	-0.261134	0.006	-0.843812	0	1.65711	0	0	0	0	0	0	0	0	0	0
4.04	-20.893	634.096	-67.4091	-0.241874	0.006	-0.335525	0	-4.78416	0	0.689438	558.752	55.2944	-0.261385	0.006	-0.844151	0	1.58748	0	0	0	0	0	0	0	0	0	0
4.05	-18.5329	627.931	-67.7357	-0.243167	0.006	-0.335852	0	-4.38076	0	0.769615	556.505	57.3291	-0.261812	0.006	-0.844476	0	1.51218	0	0	0	0	0	0	0	0	0	0
4.06	-15.8223	620.093	-67.7712	-0.244618	0.006	-0.336219	0	-3.97473	0	1.13926	553.747	59.42	-0.262412	0.006	-0.844787	0	1.43449	0	0	0	0	0	0	0	0	0	0
4.07	-12.7969	610.555	-67.5006	-0.246211	0.006	-0.33662	0	-3.57451	0	1.80619	550.437	61.5339	-0.263173	0.006	-0.845082	0	1.35731	0	0	0	0	0	0	0	0	0	0
4.08	-9.49988	599.34	-66.9213	-0.24793	0.006	-0.337047	0	-3.18761	0	2.76104	546.537	63.6342	-0.264075	0.006	-0.845365	0	1.28342	0	0	0	0	0	0	0	0	0	0
4.09	-5.98152	586.519	-66.0433	-0.249754	0.006	-0.337492	0	-2.82065	0	3.98064	542.023	65.679	-0.265093	0.006	-0.845635	0	1.21553	0	0	0	0	0	0	0	0	0	0
4.1	-2.29995	572.21	-64.8889	-0.251663	0.006	-0.337944	0	-2.47958	0	5.43327	536.883	67.6231	-0.266199	0.006	-0.845895	0	1.1563	0	0	0	0	0	0	0	0	0	0
4.11	1.47785	556.573	-63.4923	-0.253633	0.006	-0.338392	0	-2.16972	0	7.08213	531.116	69.4196	-0.267366	0.006	-0.846146	0	1.10833	0	0	0	0	0	0	0	0	0	0
4.12	5.27693	539.801	-61.9011	-0.25564	0.006	-0.338822	0	-1.89566	0	8.88548	524.72	71.0236	-0.268565	0.006	-0.84639	0	1.07419	0	0	0	0	0	0	0	0	0	0
4.13	9.0176	522.128	-60.1769	-0.257655	0.006	-0.339217	0	-1.66105	0	10.7962	517.702	72.3971	-0.269763	0.006	-0.84663	0	1.05621	0	0	0	0	0	0	0	0	0	0
4.14	12.6226	503.822	-58.3933	-0.25965	0.006	-0.339561	0	-1.46809	0	12.7595	510.073	73.5139	-0.270924	0.006	-0.846872	0	1.05631	0	0	0	0	0	0	0	0	0	0
4.15	16.0237	485.175	-56.6283	-0.261603	0.006	-0.339837	0	-1.31744	0	14.7108	501.854	74.3621	-0.272006	0.006	-0.847123	0	1.07588	0	0	0	0	0	0	0	0	0	0
4.16	19.1651	466.502	-54.9543	-0.263496	0.006	-0.34003	0	-1.20798	0	16.5807	493.078	74.9446	-0.272966	0.006	-0.847395	0	1.11563	0	0	0	0	0	0	0	0	0	0
4.17	22.0054	448.122	-53.4312	-0.265318	0.006	-0.340128	0	-1.13688	0	18.3013	483.793	75.276	-0.273766	0.006	-0.847693	0	1.17554	0	0	0	0	0	0	0	0	0	0
4.18	24.5173	430.35	-52.1028	-0.267065	0.006	-0.340124	0	-1.09988	0	19.8133	474.057	75.3758	-0.274373	0.006	-0.848023	0	1.25487	0	0	0	0	0	0	0	0	0	0
4.19	26.6827	413.471	-50.9959	-0.268733	0.006	-0.340017	0	-1.09145	0	21.0718	463.94	75.2623	-0.274767	0.006	-0.848385	0	1.35209	0	0	0	0	0	0	0	0	0	0
4.2	28.4866	397.716	-50.1207	-0.270317	0.006	-0.339809	0	-1.10543	0	22.0486	453.515	74.9487	-0.274943	0.006	-0.848773	0	1.46501	0	0	0	0	0	0	0	0	0	0
4.21	29.9127	383.242	-49.4705	-0.271805	0.006	-0.33951	0	-1.13548	0	22.7306	442.86	74.4408	-0.274905	0.006	-0.849177	0	1.59091	0	0	0	0	0	0	0	0	0	0
4.22	30.946	370.111	-49.0191	-0.27318	0.006	-0.339135	0	-1.17549	0	23.1166	432.043	73.7351	-0.274669	0.006	-0.849582	0	1.7265	0	0	0	0	0	0	0	0	0	0
4.23	31.5815	358.293	-48.7219	-0.274429	0.006	-0.338705	0	-1.21987	0	23.2133	421.121	72.8199	-0.274256	0.006	-0.849974	0	1.8678	0	0	0	0	0	0	0	0	0	0
4.24	31.8283	347.68	-48.5203	-0.275541	0.006	-0.338245	0	-1.26371	0	23.0312	410.147	71.6805	-0.273688	0.006	-0.850334	0	2.00982	0	0	0	0	0	0	0	0	0	0
4.25	31.7092	338.119	-48.3491	-0.276511	0.006	-0.337782	0	-1.3027	0	22.5821	399.17	70.306	-0.272986	0.006	-0.85065	0	2.1468	0	0	0	0	0	0	0	0	0	0
4.26	31.2562	329.436	-48.1457	-0.277334	0.006	-0.337339	0	-1.33315	0	21.8796	388.236	68.693	-0.272164	0.006	-0.850911	0	2.27279	0	0	0	0	0	0	0	0	0	0
4.27	30.5043	321.458	-47.8578	-0.278007	0.006	-0.336935	0	-1.3519	0	20.9388	377.387	66.8456	-0.271231	0.006	-0.851111	0	2.38224	0	0	0	0	0	0	0	0	0	0
4.28	29.4881	314.028	-47.448	-0.278526	0.006	-0.336586	0	-1.35631	0	19.7759	366.655	64.7742	-0.270187	0.006	-0.851249	0	2.4707	0	0	0	0	0	0	0	0	0	0
4.29	28.2454	307.012	-46.8941	-0.278889	0.006	-0.3363	0	-1.34426	0	18.4104	356.043	62.4952	-0.269032	0.006	-0.851328	0	2.53537	0	0	0	0	0	0	0	0	0	0
4.3	26.8204	300.3	-46.1877	-0.279102	0.006	-0.336086	0	-1.31441	0	16.8709	345.531	60.0344	-0.267762	0.006	-0.851354	0	2.57516	0	0	0	0	0	0	0	0	0	0
4.31	25.2648	293.819	-45.3307	-0.279176	0.006	-0.335948	0	-1.26624	0	15.1998	335.088	57.4283	-0.26638	0.006	-0.851335	0	2.59069	0	0	0	0	0	0	0	0	0	0
4.32	23.6364	287.542	-44.3343	-0.279128	0.006	-0.335888	0	-1.20001	0	13.4517	324.689	54.7241	-0.26489	0.006	-0.851284	0	2.58399	0	0	0	0	0	0	0	0	0	0
4.33	21.9956	281.483	-43.2204	-0.278971	0.006	-0.335906	0	-1.1168	0	11.6835	314.336	51.9795	-0.263302	0.006	-0.851215	0	2.55798	0	0	0	0	0	0	0	0	0	0
4.34	20.3949	275.695	-42.0225	-0.278713	0.006	-0.335995	0	-1.01873	0	9.94544	304.068	49.2605	-0.261625	0.006	-0.851147	0	2.51606	0	0	0	0	0	0	0	0	0	0
4.35	18.8704	270.251	-40.781	-0.278352	0.006	-0.336145	0	-0.908915	0	8.27747	293.957	46.6355	-0.259868	0.006	-0.851099	0	2.46177	0	0	0	0	0	0	0	0	0	0
4.36	17.4431	265.224	-39.5372	-0.27788	0.006	-0.336342	0	-0.79105	0	6.70952	284.093	44.1675	-0.25804	0.006	-0.851091	0	2.39849	0	0	0	0	0	0	0	0	0	0
4.37	16.1261	260.689	-38.3316	-0.277286	0.006	-0.336568	0	-0.669232	0	5.26357	274.571	41.9069	-0.256147	0.006	-0.851141	0	2.32926	0	0	0	0	0	0	0	0	0	0
4.38	14.9273	256.732	-37.2032	-0.276553	0.006	-0.336806	0	-0.547718	0	3.95588	265.474	39.8881	-0.254196	0.006	-0.851264	0	2.25665	0	0	0	0	0	0	0	0	0	0
4.39	13.8463	253.454	-36.1892	-0.275659	0.006	-0.337036	0	-0.430604	0	2.79705	256.879	38.1306	-0.252194	0.006	-0.851473	0	2.18265	0	0	0	0	0	0	0	0	0	0
